# Blender v2.90.1 OBJ File: 'tunnel.blend'
# www.blender.org
mtllib tunnel.mtl
o Cube
v -1.261014 -1.000000 -0.804679
v -1.261014 7.134240 -0.804679
v 14.999298 -1.000000 -0.804679
v 14.999298 7.134240 -0.804679
v -1.261014 -1.000000 10.722382
v -1.261014 7.134240 10.722382
v 14.999298 -1.000000 10.722382
v 14.999298 7.134240 10.722382
v 1.406784 -1.000000 10.722382
v 12.015906 -1.000000 10.722382
v 1.563654 6.096747 10.722382
v 12.005593 6.057887 10.722382
vt 0.375000 0.250000
vt 0.375000 0.000000
vt 0.625000 0.000000
vt 0.625000 0.250000
vt 0.375000 0.500000
vt 0.625000 0.500000
vt 0.375000 0.750000
vt 0.625000 0.750000
vt 0.875000 0.500000
vt 0.875000 0.750000
vt 0.125000 0.750000
vt 0.125000 0.500000
vt 0.329131 0.750000
vt 0.166017 0.750000
vt 0.375000 1.000000
vt 0.375000 0.958983
vt 0.593113 0.956571
vt 0.591919 0.796028
vt 0.375000 0.795869
vt 0.625000 1.000000
vn -1.0000 0.0000 0.0000
vn 0.0000 0.0000 -1.0000
vn 1.0000 0.0000 0.0000
vn 0.0000 1.0000 0.0000
vn 0.0000 -1.0000 -0.0000
vn 0.0000 0.0000 1.0000
usemtl Material
s off
f 1/1/1 5/2/1 6/3/1 2/4/1
f 3/5/2 1/1/2 2/4/2 4/6/2
f 7/7/3 3/5/3 4/6/3 8/8/3
f 2/9/4 6/10/4 8/8/4 4/6/4
f 5/11/5 1/12/5 3/5/5 7/7/5 10/13/5 9/14/5
f 5/15/6 9/16/6 11/17/6 12/18/6 10/19/6 7/7/6 8/8/6 6/20/6
